<svg width="314" height="312" viewBox="0 0 314 312" fill="none" xmlns="http://www.w3.org/2000/svg">
<path d="M11.0541 305.922C7.93926 309.037 2.70708 308.855 2.70708 308.855C2.70708 308.855 2.52499 303.623 5.6398 300.508C8.75461 297.393 13.9868 297.575 13.9868 297.575C13.9868 297.575 14.1689 302.807 11.0541 305.922Z" fill="#FFF1CE"/>
<circle cx="62.1067" cy="187" r="4" fill="#FFF1CE"/>
<circle cx="220.107" cy="197" r="4" fill="#FFF1CE"/>
<circle cx="307.107" cy="163" r="4" fill="#FFF1CE"/>
<circle cx="234.607" cy="4.5" r="3.5" fill="#FFF1CE"/>
<circle cx="57.6067" cy="105.5" r="3.5" fill="#FFF1CE"/>
<circle cx="159.107" cy="46" r="3" fill="#FFF1CE"/>
<path d="M263.429 184.432C264.342 188.542 267.265 192.104 271.01 194.205C274.572 196.215 278.409 196.58 282.428 196.397C282.61 196.397 282.793 196.397 282.884 196.397C282.884 196.215 282.884 196.032 282.884 195.849C282.519 190.552 280.692 185.345 277.769 180.961C274.846 176.759 270.919 173.288 267.083 170C264.16 174.202 262.333 179.773 263.429 184.432Z" fill="#AEDC90"/>
<path d="M263.429 184.432C264.342 188.542 267.265 192.104 271.01 194.205C274.572 196.215 278.409 196.58 282.428 196.397C282.61 196.397 282.793 196.397 282.884 196.397C265.347 186.624 266.991 170 266.991 170C264.16 174.202 262.333 179.773 263.429 184.432Z" fill="#7CA661"/>
<path d="M267.813 178.403C268.635 182.514 271.101 186.533 273.75 189.638C276.125 192.378 279.048 194.845 282.336 196.489C282.519 196.489 282.702 196.489 282.793 196.489C282.793 196.306 282.793 196.123 282.793 195.941C279.505 194.114 276.582 192.013 274.116 189.09C272.746 187.446 271.558 185.71 270.553 183.792C269.64 182.057 269.001 180.139 268.361 178.312C268.27 177.855 267.722 178.038 267.813 178.403Z" fill="#39700B"/>
<path d="M97.9024 82.7482C103.107 80.5971 107.894 76.8501 111.086 73.1725C117.539 65.6785 118.58 54.6457 116.429 45.0007C115.319 39.9353 113.376 34.9393 110.254 30.776C102.343 19.9514 88.6043 13.9839 75.2817 13.0819C67.0244 12.5268 58.0039 14.8166 51.065 19.2575C39.7546 26.6127 34.6893 42.2945 40.5873 55.409C45.9996 67.4133 54.812 65.1928 64.5264 70.5357C72.5061 74.9072 77.2939 83.789 87.2859 84.691C90.8247 84.9686 94.5023 84.2053 97.9024 82.7482Z" fill="#F4F4F4"/>
<path d="M40.6567 55.3395C46.069 67.3438 54.8814 65.1233 64.5958 70.4663C72.5755 74.8378 77.3633 83.7195 87.3553 84.6216C90.8247 84.8991 94.433 84.1358 97.9024 82.6787C99.9841 81.846 101.927 80.7358 103.8 79.4868C80.5552 78.3072 53.4936 60.4049 48.7752 45.7639C45.4445 35.3556 49.3303 24.8779 53.2161 17.8696C52.4528 18.286 51.7589 18.7023 51.065 19.1186C39.824 26.5432 34.7587 42.2251 40.6567 55.3395Z" fill="#E3E3E3"/>
<path d="M93.0452 67.8988C101.514 67.8988 108.38 61.0331 108.38 52.5639C108.38 44.0947 101.514 37.229 93.0452 37.229C84.576 37.229 77.7103 44.0947 77.7103 52.5639C77.7103 61.0331 84.576 67.8988 93.0452 67.8988Z" fill="#EBB64A"/>
<path d="M97.0004 64.8458C88.535 64.8458 81.6655 57.9763 81.6655 49.5109C81.6655 45.4864 83.2614 41.8088 85.8288 39.0332C81.041 41.6006 77.7103 46.666 77.7103 52.564C77.7103 61.0294 84.5798 67.8989 93.0452 67.8989C97.4861 67.8989 101.441 66.0254 104.217 63.0417C102.066 64.2213 99.5678 64.8458 97.0004 64.8458Z" fill="#E3A63B"/>
<path d="M104.494 53.5351C102.413 55.1311 102.69 50.3432 99.9841 46.8738C97.278 43.4044 92.5595 42.5023 94.6412 40.9064C96.7229 39.3104 100.609 40.7676 103.315 44.237C106.09 47.7759 106.576 51.8698 104.494 53.5351Z" fill="white"/>
<path d="M229.192 18.7907C225.914 17.6106 222.242 17.7417 219.03 19.2496C212.211 22.5277 200.673 28.8216 199.23 35.181C197.198 44.3596 220.603 55.9639 243.55 75.2389C266.496 94.5139 268.987 102.25 273.118 95.6284C277.248 89.0067 293.638 71.633 280.657 51.2435C270.43 35.1154 241.124 23.1177 229.192 18.7907Z" fill="#ECB579"/>
<path d="M273.118 95.6283C275.412 91.9569 281.575 84.8763 284.263 75.8289C280.657 79.3036 276.133 82.1883 270.823 80.6804C258.301 77.1401 234.109 47.1786 216.014 35.9021C210.113 32.1651 205.327 30.9194 201.656 30.9194C200.476 32.3618 199.624 33.8041 199.296 35.2465C197.263 44.425 220.669 56.0294 243.615 75.3044C266.43 94.5138 268.987 102.25 273.118 95.6283Z" fill="#DFA164"/>
<path d="M227.749 59.3071C230.241 58.5859 232.929 58.5859 235.551 58.5204C236.207 58.5204 236.862 58.5204 237.518 58.5204C248.139 58.2581 256.793 54.9145 261.972 49.014C263.087 47.7028 264.07 46.326 265.054 44.9492C265.447 44.3591 265.84 43.7691 266.299 43.179C267.217 41.8678 268.266 40.6221 269.315 39.3765C268.856 39.0487 268.397 38.7209 267.938 38.3931C266.889 39.6387 265.906 40.8844 264.923 42.1956C264.529 42.7857 264.07 43.3757 263.677 43.9658C262.759 45.277 261.776 46.6538 260.727 47.8994C255.875 53.4721 247.614 56.6191 237.518 56.8813C236.862 56.8813 236.272 56.8813 235.617 56.8813C232.863 56.8813 230.11 56.9469 227.356 57.7336C225.848 58.1925 224.471 58.7826 223.16 59.5693C223.685 59.8971 224.143 60.2905 224.668 60.6183C225.586 60.0938 226.635 59.6349 227.749 59.3071Z" fill="#F2D0A4"/>
<path d="M215.489 44.0317C216.67 44.3595 217.85 44.6217 218.964 44.9495C224.668 46.3919 231.355 47.572 237.649 45.474C242.369 43.9005 246.303 40.688 249.843 37.3444C252.073 35.312 254.171 33.1485 256.268 31.0505C255.744 30.7883 255.285 30.4605 254.761 30.1982C252.794 32.2306 250.761 34.1975 248.729 36.0987C245.32 39.2457 241.583 42.3926 237.125 43.835C231.29 45.7363 224.865 44.6217 219.358 43.2449C218.177 42.9827 217.063 42.6549 215.883 42.3271C211.097 41.0814 206.114 39.7702 201.066 39.7702C200.738 39.7702 200.41 39.7702 200.083 39.7702C200.41 40.2947 200.738 40.8847 201.131 41.4092C205.983 41.5403 210.835 42.786 215.489 44.0317Z" fill="#F2D0A4"/>
<path d="M218.833 53.0787C223.357 51.6364 228.143 51.702 231.88 51.8986C232.208 51.8986 232.535 51.9642 232.929 51.9642C235.42 52.0953 237.977 52.2265 240.534 51.702C243.746 50.9808 246.5 49.1451 249.057 47.3749C253.056 44.5558 257.186 41.4088 260.268 37.1474C260.923 36.2295 261.448 35.3772 261.972 34.3938C261.513 34.066 261.054 33.8037 260.53 33.5415C260.071 34.4594 259.547 35.3117 258.891 36.164C256.006 40.2287 252.007 43.3101 248.073 45.9981C245.648 47.7027 243.025 49.4073 240.075 50.0629C237.78 50.5874 235.289 50.4563 232.929 50.3252C232.601 50.3252 232.273 50.2596 231.88 50.2596C228.012 50.0629 222.963 49.9974 218.243 51.5053C216.801 51.9642 215.489 52.5543 214.244 53.2099C214.703 53.6032 215.227 53.931 215.752 54.3244C216.735 53.7999 217.784 53.4065 218.833 53.0787Z" fill="#F2D0A4"/>
<path d="M234.24 31.3128C231.159 32.6896 227.29 32.6896 222.439 31.3128C217.653 29.9361 213.129 27.707 209.13 24.7567C208.605 25.0845 208.147 25.4123 207.622 25.7401C211.884 28.9526 216.801 31.444 221.98 32.9519C227.225 34.4598 231.486 34.4598 234.961 32.8863C238.698 31.1817 241.124 27.9692 243.222 24.4945C242.697 24.2322 242.173 24.0356 241.648 23.8389C239.616 26.9858 237.518 29.8705 234.24 31.3128Z" fill="#F2D0A4"/>
<path d="M212.867 22.4619C216.801 24.6254 221.193 26.5267 225.848 26.9856C227.946 27.1823 229.716 27.0512 231.224 26.4611C233.453 25.6744 235.354 23.9698 236.731 21.6751C236.207 21.4785 235.682 21.2162 235.158 21.0195C233.978 22.8552 232.47 24.232 230.7 24.8221C229.454 25.281 227.946 25.4121 226.045 25.2154C222.046 24.8221 218.177 23.2486 214.637 21.4129C214.047 21.8063 213.457 22.1341 212.867 22.4619Z" fill="#F2D0A4"/>
<path d="M239.616 36.0331C232.929 40.4913 223.881 41.0813 216.669 37.541C214.965 36.6887 213.26 35.6397 211.687 34.5908C208.802 32.755 205.852 30.7882 202.377 30.067C201.918 30.526 201.459 31.0505 201.066 31.5749C201.394 31.6405 201.656 31.6405 201.984 31.7061C205.131 32.3617 207.884 34.1318 210.769 35.9675C212.408 37.0165 214.178 38.1311 215.948 39.0489C223.685 42.8515 233.388 42.1959 240.534 37.4099C244.271 34.9186 247.287 31.3783 249.188 27.3135C248.663 27.0512 248.204 26.8545 247.68 26.5923C245.91 30.3948 243.156 33.6729 239.616 36.0331Z" fill="#F2D0A4"/>
<path d="M266.168 91.6291C268.201 85.3352 270.102 79.4347 274.429 74.8454C275.609 73.5998 276.986 72.4852 278.297 71.3707C278.822 70.9118 279.346 70.4528 279.936 69.9939C281.903 68.2893 283.739 66.4536 285.509 64.5523C285.443 63.8311 285.312 63.11 285.181 62.3232C283.28 64.6179 281.116 66.7814 278.822 68.7483C278.297 69.2072 277.773 69.6661 277.248 70.0595C275.871 71.174 274.429 72.3541 273.183 73.6653C268.594 78.5169 266.562 84.8763 264.529 91.1046C264.267 91.9569 264.005 92.8092 263.677 93.6615C264.136 94.1204 264.595 94.5138 265.054 94.9072C265.447 93.7926 265.775 92.7436 266.168 91.6291Z" fill="#F2D0A4"/>
<path d="M274.56 93.465C274.953 92.8749 275.412 92.2849 275.871 91.6293C275.609 90.0558 275.478 88.4167 275.74 86.8433C276.199 83.6963 277.838 80.7461 279.543 78.0581C281.313 75.239 283.28 72.4854 285.378 69.9285C285.443 69.0106 285.509 68.0928 285.509 67.1094C282.821 70.3219 280.329 73.6655 278.1 77.1402C276.265 80.0249 274.494 83.1063 274.035 86.581C273.773 88.9412 274.035 91.2359 274.56 93.465Z" fill="#F2D0A4"/>
<path d="M260.595 82.2536C263.021 78.91 265.972 75.9598 268.856 73.0751C270.954 70.9115 273.183 68.748 275.15 66.3878C278.297 62.6508 280.788 58.7172 282.558 54.5868C282.231 53.9312 281.903 53.3412 281.51 52.6855C279.805 57.0126 277.182 61.3396 273.839 65.2733C271.872 67.5679 269.708 69.797 267.611 71.895C264.726 74.8452 261.71 77.861 259.219 81.2702C257.973 82.9748 256.924 84.745 256.137 86.4496C256.596 86.8429 256.99 87.3018 257.449 87.6952C258.235 85.8595 259.284 84.0238 260.595 82.2536Z" fill="#F2D0A4"/>
<path d="M250.171 65.4046C250.958 65.0112 251.81 64.6179 252.597 64.159C257.121 61.9299 261.776 59.6352 265.644 56.2916C269.381 53.0791 272.462 48.8832 274.626 44.0317C274.232 43.6383 273.773 43.2449 273.314 42.8516C271.216 47.7031 268.266 51.8334 264.529 55.0459C260.792 58.2584 256.203 60.4875 251.81 62.7166C251.024 63.11 250.171 63.5033 249.385 63.9623C245.516 65.9291 241.583 68.1582 238.305 71.1084C238.764 71.4362 239.157 71.8296 239.616 72.1574C242.763 69.4038 246.5 67.3059 250.171 65.4046Z" fill="#F2D0A4"/>
<path d="M248.008 78.9756C250.892 76.2876 254.236 73.9929 257.449 71.8294C260.792 69.5348 264.267 67.1746 267.283 64.3554C272.069 59.8973 275.609 54.3246 279.018 48.9486C278.69 48.4896 278.297 48.0307 277.904 47.5718C274.494 53.0134 270.889 58.7172 266.168 63.1754C263.218 65.9289 259.809 68.2891 256.531 70.5182C253.253 72.7473 249.843 75.0419 246.893 77.8611C246.828 77.9266 246.762 77.9922 246.697 78.0577C247.09 78.32 247.549 78.7133 248.008 78.9756C247.942 79.0411 247.942 79.0411 248.008 78.9756Z" fill="#F2D0A4"/>
<path d="M262.688 283.033C261.5 283.307 260.313 284.586 259.582 285.225C258.212 286.413 256.751 287.326 255.107 288.148C255.655 288.97 256.933 289.427 257.847 289.609C258.852 289.792 259.765 289.609 260.77 289.427C261.226 289.335 261.683 289.153 262.14 288.97C263.51 288.148 265.885 284.768 264.149 283.398C263.693 283.033 263.145 282.942 262.688 283.033Z" fill="#7CA661"/>
<path d="M143.765 3.92763C142.76 3.01423 142.304 1.3701 141.847 0C141.116 0.730722 140.203 1.18743 139.107 1.27877C139.563 3.28826 140.751 5.11506 142.578 6.02846C142.669 5.38908 143.217 4.38434 143.765 3.92763Z" fill="#AEDC90"/>
<path d="M149.236 159.466L146.861 157C146.861 157 146.496 162.937 141.107 165.129L143.299 166.773C143.299 166.773 147.866 164.947 149.236 159.466Z" fill="#AEDC90"/>
<path d="M10.0419 226C8.48913 226.913 7.02768 227.735 5.4749 228.649C4.5615 229.197 3.6481 229.654 3.00871 230.476C2.27799 231.298 1.54727 232.759 2.73469 233.49C3.92211 234.221 6.11428 233.033 7.11903 232.394C8.12377 231.754 9.12851 231.024 9.76789 229.928C11.0467 227.918 9.85923 226.091 10.0419 226Z" fill="#7CA661"/>
<path d="M17.2578 83.8553C17.7145 86.1388 19.3586 87.9656 21.3681 89.153C23.2863 90.2491 25.3871 90.4318 27.5793 90.3404C27.6706 90.3404 27.7619 90.3404 27.8533 90.3404C27.8533 90.2491 27.8533 90.1578 27.8533 90.0664C27.6706 87.1435 26.6659 84.4033 25.0217 81.9371C23.469 79.6536 21.3681 77.8268 19.2673 76C17.7145 78.2835 16.7098 81.2977 17.2578 83.8553Z" fill="#AEDC90"/>
<path d="M17.2578 83.8553C17.7145 86.1388 19.3586 87.9656 21.3681 89.153C23.2863 90.2491 25.3871 90.4318 27.5793 90.3404C27.6706 90.3404 27.7619 90.3404 27.8533 90.3404C18.3539 85.0427 19.2673 76 19.2673 76C17.7145 78.2835 16.7098 81.2977 17.2578 83.8553Z" fill="#7CA661"/>
<path d="M19.6325 80.5669C20.0892 82.7591 21.368 84.9512 22.8294 86.5954C24.1082 88.0568 25.661 89.4269 27.4878 90.3403C27.5791 90.3403 27.6705 90.3403 27.7618 90.3403C27.7618 90.249 27.7618 90.1576 27.7618 90.0663C26.0264 89.0615 24.3822 87.9655 23.1035 86.3213C22.3728 85.4079 21.7334 84.4945 21.1853 83.4898C20.6373 82.485 20.3633 81.4803 19.9979 80.4756C19.9066 80.2929 19.6325 80.3842 19.6325 80.5669Z" fill="#39700B"/>
<path d="M313.702 50.8553C313.245 53.1388 311.601 54.9656 309.592 56.153C307.674 57.2491 305.573 57.4318 303.381 57.3404C303.289 57.3404 303.198 57.3404 303.107 57.3404C303.107 57.2491 303.107 57.1578 303.107 57.0664C303.289 54.1435 304.294 51.4033 305.938 48.9371C307.491 46.6536 309.592 44.8268 311.693 43C313.245 45.2835 314.25 48.2977 313.702 50.8553Z" fill="#AEDC90"/>
<path d="M313.702 50.8553C313.245 53.1388 311.601 54.9656 309.592 56.153C307.674 57.2491 305.573 57.4318 303.381 57.3404C303.289 57.3404 303.198 57.3404 303.107 57.3404C312.606 52.0427 311.693 43 311.693 43C313.245 45.2835 314.25 48.2977 313.702 50.8553Z" fill="#7CA661"/>
<path d="M311.327 47.5669C310.871 49.7591 309.592 51.9512 308.131 53.5954C306.852 55.0568 305.299 56.4269 303.472 57.3403C303.381 57.3403 303.289 57.3403 303.198 57.3403C303.198 57.249 303.198 57.1576 303.198 57.0663C304.934 56.0615 306.578 54.9655 307.856 53.3213C308.587 52.4079 309.227 51.4945 309.775 50.4898C310.323 49.485 310.597 48.4803 310.962 47.4756C311.053 47.2929 311.327 47.3842 311.327 47.5669Z" fill="#39700B"/>
<path d="M75.0192 291.65C77.4892 288.485 82.0432 287.945 85.2079 290.415C87.9866 292.576 88.7585 296.358 87.2148 299.369L100.645 304L111.297 261.316C109.831 261.316 108.287 260.852 106.975 259.849C103.964 257.456 103.424 253.134 105.74 250.046C107.824 247.345 111.606 246.65 114.539 248.194L120.174 225.578L102.343 214L91.1513 222.182C91.846 224.42 91.5372 226.967 89.9935 228.897C87.6007 231.985 83.1238 232.602 79.9592 230.286L50.3966 251.822C51.0141 252.053 51.6316 252.362 52.1719 252.748C54.6419 254.678 55.105 258.305 53.1753 260.852C51.2456 263.322 47.6178 263.786 45.0707 261.856C43.6041 260.698 42.8322 259 42.8322 257.302L33.1067 264.403L56.4172 288.64L73.4755 294.506C73.8614 293.58 74.3245 292.576 75.0192 291.65Z" fill="#EBB64A"/>
<path d="M102.498 214.077L91.3057 222.259C92.0004 224.497 91.6916 227.045 90.1479 228.974C87.7551 232.062 83.2783 232.679 80.1136 230.364L50.551 251.899C51.1685 252.13 51.786 252.439 52.3263 252.825C54.7963 254.755 55.2594 258.382 53.3297 260.93C51.4 263.4 47.7723 263.863 45.2251 261.933C43.7585 260.775 42.9867 259.077 42.9867 257.379L33.2611 264.48L56.5716 288.717L120.328 225.578L102.498 214.077Z" fill="#EEC94D"/>
<path d="M78.5698 253.751C76.9489 255.835 74.0158 256.144 71.9317 254.6C69.8477 252.979 69.5389 250.046 71.0827 247.962C72.7036 245.878 75.6367 245.569 77.7208 247.113C79.8048 248.734 80.1907 251.744 78.5698 253.751Z" fill="#EBB64A"/>
<path d="M109.522 228.974C108.518 230.286 106.589 230.518 105.277 229.514C103.964 228.511 103.733 226.581 104.736 225.269C105.74 223.957 107.669 223.725 108.982 224.729C110.294 225.732 110.525 227.662 109.522 228.974Z" fill="#EBB64A"/>
<path d="M65.6796 274.823C63.9043 277.062 60.6625 277.448 58.424 275.749C56.1856 273.974 55.7997 270.732 57.4978 268.494C59.2731 266.255 62.515 265.87 64.7534 267.568C67.069 269.343 67.4549 272.585 65.6796 274.823Z" fill="#EBB64A"/>
<path d="M98.4841 280.844C97.0175 282.773 94.2388 283.082 92.3091 281.616C90.3794 280.149 90.0707 277.37 91.5372 275.441C93.0038 273.511 95.7825 273.202 97.7122 274.669C99.6419 276.135 99.9506 278.914 98.4841 280.844Z" fill="#CC9431"/>
<path d="M219.868 249.391C219.868 249.391 195.29 269.829 189.858 269.829C184.425 269.829 180.63 261.291 174.68 268.449C168.643 275.606 181.924 280.522 181.924 280.522C181.924 280.522 178.733 290.008 185.46 293.285C192.186 296.562 192.876 287.938 194.601 280.436C196.239 272.933 228.664 259.825 228.664 259.825L219.868 249.391Z" fill="#F2D0A4"/>
<path d="M299.291 231.453C310.933 210.929 291.875 186.007 269.022 191.871C268.677 191.957 268.419 192.043 268.074 192.13C250.482 197.304 213.831 247.062 214.866 251.46C216.505 258.532 223.921 250.598 221.075 256.634C218.229 262.671 215.125 266.896 230.647 263.706C246.256 260.515 291.185 244.82 298.86 232.143C299.033 231.885 299.205 231.626 299.291 231.453Z" fill="#C89059"/>
<path d="M255.828 215.499C272.213 200.235 284.89 196.786 291.53 196.269C285.494 191.784 277.56 189.715 269.022 191.87C268.677 191.957 268.419 192.043 268.074 192.129C250.482 197.303 213.831 247.062 214.866 251.46C216.505 258.531 223.921 250.597 221.075 256.634C218.229 262.67 215.125 266.896 230.647 263.705C232.976 263.188 235.994 262.412 239.443 261.463C238.064 251.718 237.977 232.143 255.828 215.499Z" fill="#BA7F4A"/>
<path d="M264.366 220.329C263.503 220.847 262.296 220.588 261.779 219.726C261.261 218.863 261.52 217.656 262.382 217.139C263.245 216.621 264.452 216.88 264.969 217.742C265.487 218.605 265.228 219.812 264.366 220.329Z" fill="#BA7F4A"/>
<path d="M256.691 230.246C255.656 230.849 254.362 230.591 253.672 229.556C253.069 228.521 253.327 227.227 254.362 226.538C255.397 225.934 256.691 226.193 257.381 227.227C258.07 228.262 257.726 229.556 256.691 230.246Z" fill="#BA7F4A"/>
<path d="M250.999 241.543C249.964 242.146 248.671 241.887 247.981 240.853C247.377 239.818 247.636 238.524 248.671 237.834C249.705 237.231 250.999 237.489 251.689 238.524C252.379 239.559 251.948 240.853 250.999 241.543Z" fill="#BA7F4A"/>
<path d="M260.83 237.921C260.054 238.439 259.019 238.18 258.588 237.404C258.07 236.628 258.329 235.593 259.105 235.162C259.881 234.644 260.916 234.903 261.347 235.679C261.865 236.455 261.606 237.404 260.83 237.921Z" fill="#BA7F4A"/>
<path d="M274.8 215.069C274.024 215.586 272.989 215.327 272.558 214.551C272.041 213.775 272.299 212.74 273.076 212.309C273.852 211.792 274.886 212.051 275.318 212.827C275.835 213.603 275.576 214.638 274.8 215.069Z" fill="#BA7F4A"/>
<path d="M201.007 176.8C214.206 176.8 224.907 166.1 224.907 152.9C224.907 139.7 214.206 129 201.007 129C187.807 129 177.107 139.7 177.107 152.9C177.107 166.1 187.807 176.8 201.007 176.8Z" fill="#EBB64A"/>
<path d="M201.007 174.469C212.918 174.469 222.575 164.812 222.575 152.9C222.575 140.988 212.918 131.332 201.007 131.332C189.095 131.332 179.438 140.988 179.438 152.9C179.438 164.812 189.095 174.469 201.007 174.469Z" fill="white"/>
<path d="M181.77 152.252H196.343C197.444 152.252 198.027 150.892 197.25 150.114L186.952 139.751C186.433 139.233 185.527 139.298 185.073 139.816C182.547 142.86 180.928 146.682 180.539 150.827C180.475 151.604 181.058 152.252 181.77 152.252Z" fill="#EEC94D"/>
<path d="M196.408 153.482H181.77C180.993 153.482 180.41 154.13 180.539 154.907C180.928 159.053 182.612 162.874 185.073 165.918C185.527 166.501 186.433 166.566 186.952 165.983L197.25 155.685C198.092 154.843 197.509 153.482 196.408 153.482Z" fill="#EEC94D"/>
<path d="M198.934 132.433C194.789 132.821 190.967 134.505 187.923 136.967C187.34 137.42 187.275 138.327 187.858 138.845L198.157 149.143C198.934 149.92 200.294 149.402 200.294 148.236V133.663C200.359 132.951 199.711 132.368 198.934 132.433Z" fill="#EEC94D"/>
<path d="M203.792 149.208L214.09 138.909C214.608 138.391 214.544 137.484 214.025 137.031C210.981 134.505 207.16 132.886 203.015 132.497C202.237 132.432 201.59 133.015 201.59 133.728V148.301C201.59 149.402 202.95 149.985 203.792 149.208Z" fill="#EEC94D"/>
<path d="M205.541 152.252H220.114C220.891 152.252 221.474 151.605 221.344 150.827C220.956 146.682 219.272 142.861 216.81 139.817C216.357 139.234 215.45 139.169 214.932 139.752L204.634 150.05C203.857 150.892 204.439 152.252 205.541 152.252Z" fill="#EEC94D"/>
<path d="M220.178 153.482H205.605C204.504 153.482 203.921 154.843 204.698 155.62L214.997 165.918C215.515 166.436 216.422 166.372 216.875 165.853C219.401 162.809 221.02 158.988 221.409 154.843C221.474 154.13 220.891 153.482 220.178 153.482Z" fill="#EEC94D"/>
<path d="M198.222 156.527L187.923 166.825C187.405 167.343 187.47 168.25 187.988 168.704C191.032 171.23 194.854 172.849 198.999 173.237C199.776 173.302 200.424 172.719 200.424 172.007V157.434C200.359 156.333 198.999 155.75 198.222 156.527Z" fill="#EEC94D"/>
<path d="M203.792 156.527C203.014 155.75 201.654 156.268 201.654 157.434V172.007C201.654 172.784 202.302 173.367 203.079 173.237C207.224 172.849 211.046 171.165 214.09 168.703C214.673 168.25 214.738 167.343 214.155 166.825L203.792 156.527Z" fill="#EEC94D"/>
<path d="M77.2296 158.239C77.2296 158.239 80.3074 159.383 82.0661 157.238C83.8249 155.093 86.463 149.016 92.3987 147.014C93.9376 146.514 95.2567 146.085 96.4292 145.727C98.994 144.941 101.046 143.01 101.925 140.508C102.878 137.934 104.93 134.645 109.4 132.643C117.534 129.069 117.387 126.066 118.34 123.492C119.293 120.918 125.668 128.783 124.276 139.15C122.884 149.516 112.697 156.451 112.697 156.451C112.697 156.451 108.374 161.885 98.8474 164.53C89.3942 167.176 85.0707 161.671 83.3852 160.813C81.773 159.955 78.7685 162.457 77.3029 161.17C75.9838 159.955 77.2296 158.239 77.2296 158.239Z" fill="#D4E86D"/>
<path d="M124.276 139.221C125.668 128.854 119.293 120.918 118.34 123.563C117.754 125.207 117.607 126.995 115.482 128.997C116.655 130.927 117.827 134.001 117.681 138.72C117.387 148.157 108.447 146.942 105.589 150.088C102.731 153.234 103.244 160.741 93.4979 161.456C87.7087 161.885 84.3378 159.096 82.5791 156.594C82.3592 156.88 82.2127 157.094 82.0661 157.309C80.3074 159.454 77.2296 158.31 77.2296 158.31C77.2296 158.31 75.9838 159.954 77.3762 161.241C78.7685 162.528 81.773 160.026 83.4585 160.884C85.0706 161.742 89.3942 167.247 98.9207 164.601C108.374 161.956 112.771 156.522 112.771 156.522C112.771 156.522 122.81 149.587 124.276 139.221Z" fill="#B5CD5A"/>
<path d="M212.162 101C209.422 101 209.422 105.293 212.162 105.293C214.902 105.202 214.902 101 212.162 101Z" fill="#FFF1CE"/>
<path d="M162.123 250.011H162.032C161.484 250.103 161.027 250.742 161.118 251.29C161.118 251.838 161.484 252.478 162.032 252.569H162.123C162.945 252.752 163.767 252.204 163.767 251.29C163.767 250.377 162.945 249.92 162.123 250.011Z" fill="#FFF1CE"/>
<path d="M136.956 87C134.49 87 134.49 90.8363 136.956 90.8363C139.423 90.8363 139.423 87 136.956 87Z" fill="#FFF1CE"/>
<path d="M70.4708 184.675C70.4708 184.675 73.6219 185.533 75.1608 183.245C76.6997 180.957 78.8248 174.666 84.5407 172.163C86.0063 171.52 87.3254 170.948 88.4246 170.519C90.9161 169.446 92.8214 167.373 93.481 164.871C94.1405 162.225 95.8992 158.794 100.149 156.434C107.991 152.144 107.478 149.213 108.21 146.568C108.943 143.922 115.978 151.215 115.538 161.653C115.099 172.092 105.572 179.885 105.572 179.885C105.572 179.885 101.762 185.676 92.5283 189.108C83.2949 192.539 78.5317 187.463 76.8462 186.748C75.1608 186.033 72.3761 188.75 70.8372 187.606C69.4449 186.462 70.4708 184.675 70.4708 184.675Z" fill="#D4E86D"/>
<path d="M115.612 161.653C116.051 151.215 108.943 143.851 108.284 146.568C107.844 148.284 107.844 150.071 105.939 152.287C107.331 154.075 108.723 157.077 109.017 161.796C109.529 171.234 100.589 170.805 98.0244 174.165C95.4596 177.525 96.6321 184.961 87.0323 186.534C81.2431 187.463 77.7256 184.961 75.7471 182.601C75.6005 182.887 75.4539 183.173 75.3074 183.388C73.7685 185.676 70.6174 184.818 70.6174 184.818C70.6174 184.818 69.5915 186.605 71.0571 187.749C72.596 188.893 75.3806 186.176 77.0661 186.891C78.7516 187.606 83.5881 192.682 92.7482 189.25C101.982 185.819 105.792 180.028 105.792 180.028C105.792 180.028 115.172 172.092 115.612 161.653Z" fill="#B5CD5A"/>
</svg>
