<svg width="393" height="500" viewBox="0 0 393 500" fill="none" xmlns="http://www.w3.org/2000/svg">
<path d="M510 635.746C524.081 594.022 526.714 501.326 471.812 464.03C416.909 426.734 319.471 443.013 283 464.03C246.529 485.047 112.5 494 132 426.246C158.56 333.96 170.5 297.746 104 320.246C37.5 342.746 66.4765 282.629 -8 292.746C-67.5812 300.84 -128 389.746 -179 285.746" stroke="#3DA0A7"/>
<path d="M47.1181 97.1502C63.335 120.063 43.9803 139.828 29.6984 140.553C-21.6613 142.599 -9.41282 122.846 -4.81708 90.6139C-0.221344 58.3822 30.9012 74.2371 47.1181 97.1502Z" stroke="#3DA0A7"/>
<path d="M167.26 -68.2404C173.419 -62.8555 183.032 -43.527 172.217 -9.29173C158.698 33.5024 131.736 121.658 191.691 127.593C251.646 133.529 297.355 114.192 288.984 91.9573C280.613 69.7229 232.24 85.9269 247.548 147.139C262.857 208.351 343.498 240.011 403.919 196.472" stroke="#3DA0A7"/>
</svg>

